G75*
%MOIN*%
%OFA0B0*%
%FSLAX25Y25*%
%IPPOS*%
%LPD*%
%AMOC8*
5,1,8,0,0,1.08239X$1,22.5*
%
%ADD10C,0.00600*%
%ADD11C,0.14183*%
%ADD12R,0.05718X0.06506*%
%ADD13C,0.06600*%
%ADD14R,0.05324X0.05324*%
%ADD15R,0.06112X0.04931*%
%ADD16R,0.04931X0.06112*%
%ADD17C,0.10600*%
%ADD18C,0.06300*%
%ADD19C,0.04600*%
%ADD20C,0.19498*%
%ADD21C,0.07200*%
%ADD22R,0.05400X0.09400*%
%ADD23R,0.14773X0.09261*%
%ADD24C,0.06000*%
%ADD25C,0.03578*%
D10*
X0086930Y0256221D02*
X0086930Y0290670D01*
X0115473Y0290670D01*
X0115473Y0256221D01*
X0086930Y0256221D01*
X0086930Y0256266D02*
X0115473Y0256266D01*
X0115473Y0256864D02*
X0086930Y0256864D01*
X0086930Y0257463D02*
X0115473Y0257463D01*
X0115473Y0258061D02*
X0086930Y0258061D01*
X0086930Y0258660D02*
X0115473Y0258660D01*
X0115473Y0259258D02*
X0086930Y0259258D01*
X0086930Y0259857D02*
X0115473Y0259857D01*
X0115473Y0260455D02*
X0086930Y0260455D01*
X0086930Y0261054D02*
X0115473Y0261054D01*
X0115473Y0261652D02*
X0086930Y0261652D01*
X0086930Y0262251D02*
X0115473Y0262251D01*
X0115473Y0262849D02*
X0086930Y0262849D01*
X0086930Y0263448D02*
X0115473Y0263448D01*
X0115473Y0264046D02*
X0086930Y0264046D01*
X0086930Y0264645D02*
X0115473Y0264645D01*
X0115473Y0265243D02*
X0086930Y0265243D01*
X0086930Y0265842D02*
X0115473Y0265842D01*
X0115473Y0266441D02*
X0086930Y0266441D01*
X0086930Y0267039D02*
X0115473Y0267039D01*
X0115473Y0267638D02*
X0086930Y0267638D01*
X0086930Y0268236D02*
X0115473Y0268236D01*
X0115473Y0268835D02*
X0086930Y0268835D01*
X0086930Y0269433D02*
X0115473Y0269433D01*
X0115473Y0270032D02*
X0086930Y0270032D01*
X0086930Y0270630D02*
X0115473Y0270630D01*
X0115473Y0271229D02*
X0086930Y0271229D01*
X0086930Y0271827D02*
X0115473Y0271827D01*
X0115473Y0272426D02*
X0086930Y0272426D01*
X0086930Y0273024D02*
X0115473Y0273024D01*
X0115473Y0273623D02*
X0086930Y0273623D01*
X0086930Y0274221D02*
X0115473Y0274221D01*
X0115473Y0274820D02*
X0086930Y0274820D01*
X0086930Y0275418D02*
X0115473Y0275418D01*
X0115473Y0276017D02*
X0086930Y0276017D01*
X0086930Y0276615D02*
X0115473Y0276615D01*
X0115473Y0277214D02*
X0086930Y0277214D01*
X0086930Y0277812D02*
X0115473Y0277812D01*
X0115473Y0278411D02*
X0086930Y0278411D01*
X0086930Y0279009D02*
X0115473Y0279009D01*
X0115473Y0279608D02*
X0086930Y0279608D01*
X0086930Y0280206D02*
X0115473Y0280206D01*
X0115473Y0280805D02*
X0086930Y0280805D01*
X0086930Y0281403D02*
X0115473Y0281403D01*
X0115473Y0282002D02*
X0086930Y0282002D01*
X0086930Y0282600D02*
X0115473Y0282600D01*
X0115473Y0283199D02*
X0086930Y0283199D01*
X0086930Y0283797D02*
X0115473Y0283797D01*
X0115473Y0284396D02*
X0086930Y0284396D01*
X0086930Y0284994D02*
X0115473Y0284994D01*
X0115473Y0285593D02*
X0086930Y0285593D01*
X0086930Y0286191D02*
X0115473Y0286191D01*
X0115473Y0286790D02*
X0086930Y0286790D01*
X0086930Y0287388D02*
X0115473Y0287388D01*
X0115473Y0287987D02*
X0086930Y0287987D01*
X0086930Y0288585D02*
X0115473Y0288585D01*
X0115473Y0289184D02*
X0086930Y0289184D01*
X0086930Y0289782D02*
X0115473Y0289782D01*
X0115473Y0290381D02*
X0086930Y0290381D01*
D11*
X0020985Y0020985D03*
X0343820Y0020985D03*
X0343820Y0457993D03*
X0020985Y0457993D03*
D12*
X0085552Y0203072D03*
X0092245Y0203072D03*
X0105237Y0203072D03*
X0111930Y0203072D03*
X0124922Y0203072D03*
X0131615Y0203072D03*
X0144607Y0203072D03*
X0151300Y0203072D03*
X0164292Y0203072D03*
X0170985Y0203072D03*
D13*
X0170158Y0147017D02*
X0170158Y0141017D01*
X0180158Y0141017D02*
X0180158Y0147017D01*
X0190158Y0147017D02*
X0190158Y0141017D01*
X0200158Y0141017D02*
X0200158Y0147017D01*
X0210158Y0147017D02*
X0210158Y0141017D01*
X0220158Y0141017D02*
X0220158Y0147017D01*
X0230158Y0147017D02*
X0230158Y0141017D01*
X0160158Y0141017D02*
X0160158Y0147017D01*
X0150158Y0147017D02*
X0150158Y0141017D01*
X0140158Y0141017D02*
X0140158Y0147017D01*
X0130158Y0147017D02*
X0130158Y0141017D01*
X0120158Y0141017D02*
X0120158Y0147017D01*
X0110158Y0147017D02*
X0110158Y0141017D01*
X0100158Y0141017D02*
X0100158Y0147017D01*
X0090158Y0147017D02*
X0090158Y0141017D01*
X0080158Y0141017D02*
X0080158Y0147017D01*
X0070158Y0147017D02*
X0070158Y0141017D01*
X0060158Y0141017D02*
X0060158Y0147017D01*
X0050158Y0147017D02*
X0050158Y0141017D01*
X0040158Y0141017D02*
X0040158Y0147017D01*
X0046064Y0038749D02*
X0046064Y0032749D01*
X0056064Y0032749D02*
X0056064Y0038749D01*
X0066064Y0038749D02*
X0066064Y0032749D01*
X0076064Y0032749D02*
X0076064Y0038749D01*
X0086064Y0038749D02*
X0086064Y0032749D01*
X0096064Y0032749D02*
X0096064Y0038749D01*
X0106064Y0038749D02*
X0106064Y0032749D01*
X0116064Y0032749D02*
X0116064Y0038749D01*
X0126064Y0038749D02*
X0126064Y0032749D01*
X0136064Y0032749D02*
X0136064Y0038749D01*
X0146064Y0038749D02*
X0146064Y0032749D01*
X0156064Y0032749D02*
X0156064Y0038749D01*
X0166064Y0038749D02*
X0166064Y0032749D01*
X0176064Y0032749D02*
X0176064Y0038749D01*
X0186064Y0038749D02*
X0186064Y0032749D01*
X0196064Y0032749D02*
X0196064Y0038749D01*
X0206064Y0038749D02*
X0206064Y0032749D01*
X0216064Y0032749D02*
X0216064Y0038749D01*
X0226064Y0038749D02*
X0226064Y0032749D01*
X0236064Y0032749D02*
X0236064Y0038749D01*
X0339835Y0119174D02*
X0345835Y0119174D01*
X0345835Y0129174D02*
X0339835Y0129174D01*
X0339835Y0139174D02*
X0345835Y0139174D01*
X0345835Y0149174D02*
X0339835Y0149174D01*
X0339835Y0174292D02*
X0345835Y0174292D01*
X0345835Y0184292D02*
X0339835Y0184292D01*
X0339835Y0194292D02*
X0345835Y0194292D01*
X0345835Y0204292D02*
X0339835Y0204292D01*
X0339835Y0229410D02*
X0345835Y0229410D01*
X0345835Y0239410D02*
X0339835Y0239410D01*
X0339835Y0249410D02*
X0345835Y0249410D01*
X0345835Y0259410D02*
X0339835Y0259410D01*
X0339835Y0284528D02*
X0345835Y0284528D01*
X0345835Y0294528D02*
X0339835Y0294528D01*
X0339835Y0304528D02*
X0345835Y0304528D01*
X0345835Y0314528D02*
X0339835Y0314528D01*
X0339835Y0339646D02*
X0345835Y0339646D01*
X0345835Y0349646D02*
X0339835Y0349646D01*
X0339835Y0359646D02*
X0345835Y0359646D01*
X0345835Y0369646D02*
X0339835Y0369646D01*
X0339835Y0394765D02*
X0345835Y0394765D01*
X0345835Y0404765D02*
X0339835Y0404765D01*
X0339835Y0414765D02*
X0345835Y0414765D01*
X0345835Y0424765D02*
X0339835Y0424765D01*
X0270237Y0403906D02*
X0270237Y0397906D01*
X0260237Y0397906D02*
X0260237Y0403906D01*
X0250237Y0403906D02*
X0250237Y0397906D01*
X0240237Y0397906D02*
X0240237Y0403906D01*
X0207245Y0403906D02*
X0207245Y0397906D01*
X0197245Y0397906D02*
X0197245Y0403906D01*
X0187245Y0403906D02*
X0187245Y0397906D01*
X0177245Y0397906D02*
X0177245Y0403906D01*
X0142284Y0403906D02*
X0142284Y0397906D01*
X0132284Y0397906D02*
X0132284Y0403906D01*
X0122284Y0403906D02*
X0122284Y0397906D01*
X0112284Y0397906D02*
X0112284Y0403906D01*
X0112284Y0335009D02*
X0112284Y0329009D01*
X0122284Y0329009D02*
X0122284Y0335009D01*
X0132284Y0335009D02*
X0132284Y0329009D01*
X0142284Y0329009D02*
X0142284Y0335009D01*
X0177245Y0335009D02*
X0177245Y0329009D01*
X0187245Y0329009D02*
X0187245Y0335009D01*
X0197245Y0335009D02*
X0197245Y0329009D01*
X0207245Y0329009D02*
X0207245Y0335009D01*
X0240237Y0335009D02*
X0240237Y0329009D01*
X0250237Y0329009D02*
X0250237Y0335009D01*
X0260237Y0335009D02*
X0260237Y0329009D01*
X0270237Y0329009D02*
X0270237Y0335009D01*
X0029379Y0327835D02*
X0023379Y0327835D01*
X0023379Y0317835D02*
X0029379Y0317835D01*
X0029379Y0307835D02*
X0023379Y0307835D01*
D14*
X0277875Y0044804D03*
X0277875Y0036536D03*
D15*
X0262127Y0036733D03*
X0262127Y0044607D03*
D16*
X0238505Y0247363D03*
X0230631Y0247363D03*
X0218820Y0247363D03*
X0210946Y0247363D03*
X0199135Y0247363D03*
X0191261Y0247363D03*
X0179450Y0247363D03*
X0171576Y0247363D03*
X0159765Y0247363D03*
X0151891Y0247363D03*
X0140080Y0247363D03*
X0132206Y0247363D03*
X0033780Y0203072D03*
X0025906Y0203072D03*
D17*
X0033780Y0180434D03*
X0053465Y0180434D03*
X0073150Y0180434D03*
X0092835Y0180434D03*
X0113505Y0180434D03*
X0151891Y0180434D03*
X0171576Y0180434D03*
D18*
X0168938Y0116930D03*
X0158938Y0116930D03*
X0148938Y0116930D03*
X0138938Y0116930D03*
X0128938Y0116930D03*
X0118938Y0116930D03*
X0108938Y0116930D03*
X0098938Y0116930D03*
X0088938Y0116930D03*
X0078938Y0116930D03*
X0078938Y0106930D03*
X0078938Y0096930D03*
X0078938Y0086930D03*
X0078938Y0076930D03*
X0078938Y0066930D03*
X0078938Y0056930D03*
X0088938Y0056930D03*
X0098938Y0056930D03*
X0108938Y0056930D03*
X0118938Y0056930D03*
X0128938Y0056930D03*
X0138938Y0056930D03*
X0148938Y0056930D03*
X0158938Y0056930D03*
X0168938Y0056930D03*
X0178938Y0056930D03*
X0188938Y0056930D03*
X0198938Y0056930D03*
X0208938Y0056930D03*
X0218938Y0056930D03*
X0228938Y0056930D03*
X0238938Y0056930D03*
X0248938Y0056930D03*
X0258938Y0056930D03*
X0248938Y0066930D03*
X0228938Y0066930D03*
X0218938Y0066930D03*
X0208938Y0066930D03*
X0213938Y0104430D03*
X0223938Y0104430D03*
X0233938Y0104430D03*
X0238938Y0116930D03*
X0228938Y0116930D03*
X0218938Y0116930D03*
X0208938Y0116930D03*
X0198938Y0116930D03*
X0188938Y0116930D03*
X0178938Y0116930D03*
X0193938Y0104430D03*
X0203938Y0104430D03*
X0248938Y0116930D03*
X0258938Y0116930D03*
X0068938Y0116930D03*
X0058938Y0116930D03*
X0048938Y0116930D03*
X0038938Y0116930D03*
X0028938Y0116930D03*
X0028938Y0056930D03*
X0038938Y0056930D03*
X0048938Y0056930D03*
X0058938Y0056930D03*
X0068938Y0056930D03*
D19*
X0048859Y0264765D03*
X0048859Y0282481D03*
X0023269Y0282481D03*
X0023269Y0264765D03*
D20*
X0060985Y0355591D03*
X0049568Y0374095D03*
X0072796Y0374095D03*
X0060985Y0407481D03*
X0049568Y0425985D03*
X0072796Y0425985D03*
D21*
X0075906Y0305591D03*
X0065906Y0305591D03*
X0055906Y0305591D03*
D22*
X0092043Y0235478D03*
X0101143Y0235478D03*
X0110243Y0235478D03*
D23*
X0101143Y0259879D03*
D24*
X0056244Y0245552D02*
X0050844Y0245552D01*
X0050844Y0235552D02*
X0056244Y0235552D01*
X0056244Y0225552D02*
X0050844Y0225552D01*
D25*
X0072166Y0203072D03*
X0073150Y0168623D03*
X0015080Y0203072D03*
X0100709Y0298544D03*
X0132206Y0261143D03*
X0122363Y0243426D03*
X0130237Y0227678D03*
X0151891Y0261143D03*
X0171576Y0261143D03*
X0191261Y0261143D03*
X0210946Y0261143D03*
X0230631Y0261143D03*
X0186339Y0203072D03*
X0270985Y0115473D03*
X0274922Y0110552D03*
X0270985Y0105631D03*
X0274922Y0100709D03*
X0270985Y0095788D03*
X0274922Y0090867D03*
X0270985Y0085946D03*
X0274922Y0081024D03*
X0270985Y0076103D03*
X0251300Y0036733D03*
X0277875Y0028859D03*
X0274922Y0120394D03*
M02*
