G75*
%MOIN*%
%OFA0B0*%
%FSLAX25Y25*%
%IPPOS*%
%LPD*%
%AMOC8*
5,1,8,0,0,1.08239X$1,22.5*
%
%ADD10C,0.06000*%
%ADD11C,0.05700*%
%ADD12C,0.04000*%
%ADD13C,0.18898*%
%ADD14C,0.06600*%
%ADD15C,0.05400*%
%ADD16C,0.02978*%
%ADD17C,0.00600*%
D10*
X0046064Y0032749D02*
X0046064Y0038749D01*
X0056064Y0038749D02*
X0056064Y0032749D01*
X0066064Y0032749D02*
X0066064Y0038749D01*
X0076064Y0038749D02*
X0076064Y0032749D01*
X0086064Y0032749D02*
X0086064Y0038749D01*
X0096064Y0038749D02*
X0096064Y0032749D01*
X0106064Y0032749D02*
X0106064Y0038749D01*
X0116064Y0038749D02*
X0116064Y0032749D01*
X0126064Y0032749D02*
X0126064Y0038749D01*
X0136064Y0038749D02*
X0136064Y0032749D01*
X0146064Y0032749D02*
X0146064Y0038749D01*
X0156064Y0038749D02*
X0156064Y0032749D01*
X0166064Y0032749D02*
X0166064Y0038749D01*
X0176064Y0038749D02*
X0176064Y0032749D01*
X0186064Y0032749D02*
X0186064Y0038749D01*
X0196064Y0038749D02*
X0196064Y0032749D01*
X0206064Y0032749D02*
X0206064Y0038749D01*
X0216064Y0038749D02*
X0216064Y0032749D01*
X0226064Y0032749D02*
X0226064Y0038749D01*
X0236064Y0038749D02*
X0236064Y0032749D01*
X0230158Y0141017D02*
X0230158Y0147017D01*
X0220158Y0147017D02*
X0220158Y0141017D01*
X0210158Y0141017D02*
X0210158Y0147017D01*
X0200158Y0147017D02*
X0200158Y0141017D01*
X0190158Y0141017D02*
X0190158Y0147017D01*
X0180158Y0147017D02*
X0180158Y0141017D01*
X0170158Y0141017D02*
X0170158Y0147017D01*
X0160158Y0147017D02*
X0160158Y0141017D01*
X0150158Y0141017D02*
X0150158Y0147017D01*
X0140158Y0147017D02*
X0140158Y0141017D01*
X0130158Y0141017D02*
X0130158Y0147017D01*
X0120158Y0147017D02*
X0120158Y0141017D01*
X0110158Y0141017D02*
X0110158Y0147017D01*
X0100158Y0147017D02*
X0100158Y0141017D01*
X0090158Y0141017D02*
X0090158Y0147017D01*
X0080158Y0147017D02*
X0080158Y0141017D01*
X0070158Y0141017D02*
X0070158Y0147017D01*
X0060158Y0147017D02*
X0060158Y0141017D01*
X0050158Y0141017D02*
X0050158Y0147017D01*
X0040158Y0147017D02*
X0040158Y0141017D01*
X0029379Y0307835D02*
X0023379Y0307835D01*
X0023379Y0317835D02*
X0029379Y0317835D01*
X0029379Y0327835D02*
X0023379Y0327835D01*
X0112284Y0329009D02*
X0112284Y0335009D01*
X0122284Y0335009D02*
X0122284Y0329009D01*
X0132284Y0329009D02*
X0132284Y0335009D01*
X0142284Y0335009D02*
X0142284Y0329009D01*
X0177245Y0329009D02*
X0177245Y0335009D01*
X0187245Y0335009D02*
X0187245Y0329009D01*
X0197245Y0329009D02*
X0197245Y0335009D01*
X0207245Y0335009D02*
X0207245Y0329009D01*
X0240237Y0329009D02*
X0240237Y0335009D01*
X0250237Y0335009D02*
X0250237Y0329009D01*
X0260237Y0329009D02*
X0260237Y0335009D01*
X0270237Y0335009D02*
X0270237Y0329009D01*
X0270237Y0397906D02*
X0270237Y0403906D01*
X0260237Y0403906D02*
X0260237Y0397906D01*
X0250237Y0397906D02*
X0250237Y0403906D01*
X0240237Y0403906D02*
X0240237Y0397906D01*
X0207245Y0397906D02*
X0207245Y0403906D01*
X0197245Y0403906D02*
X0197245Y0397906D01*
X0187245Y0397906D02*
X0187245Y0403906D01*
X0177245Y0403906D02*
X0177245Y0397906D01*
X0142284Y0397906D02*
X0142284Y0403906D01*
X0132284Y0403906D02*
X0132284Y0397906D01*
X0122284Y0397906D02*
X0122284Y0403906D01*
X0112284Y0403906D02*
X0112284Y0397906D01*
X0339835Y0394765D02*
X0345835Y0394765D01*
X0345835Y0404765D02*
X0339835Y0404765D01*
X0339835Y0414765D02*
X0345835Y0414765D01*
X0345835Y0424765D02*
X0339835Y0424765D01*
X0339835Y0369646D02*
X0345835Y0369646D01*
X0345835Y0359646D02*
X0339835Y0359646D01*
X0339835Y0349646D02*
X0345835Y0349646D01*
X0345835Y0339646D02*
X0339835Y0339646D01*
X0339835Y0314528D02*
X0345835Y0314528D01*
X0345835Y0304528D02*
X0339835Y0304528D01*
X0339835Y0294528D02*
X0345835Y0294528D01*
X0345835Y0284528D02*
X0339835Y0284528D01*
X0339835Y0259410D02*
X0345835Y0259410D01*
X0345835Y0249410D02*
X0339835Y0249410D01*
X0339835Y0239410D02*
X0345835Y0239410D01*
X0345835Y0229410D02*
X0339835Y0229410D01*
X0339835Y0204292D02*
X0345835Y0204292D01*
X0345835Y0194292D02*
X0339835Y0194292D01*
X0339835Y0184292D02*
X0345835Y0184292D01*
X0345835Y0174292D02*
X0339835Y0174292D01*
X0339835Y0149174D02*
X0345835Y0149174D01*
X0345835Y0139174D02*
X0339835Y0139174D01*
X0339835Y0129174D02*
X0345835Y0129174D01*
X0345835Y0119174D02*
X0339835Y0119174D01*
D11*
X0258938Y0116930D03*
X0248938Y0116930D03*
X0238938Y0116930D03*
X0228938Y0116930D03*
X0218938Y0116930D03*
X0208938Y0116930D03*
X0198938Y0116930D03*
X0188938Y0116930D03*
X0178938Y0116930D03*
X0168938Y0116930D03*
X0158938Y0116930D03*
X0148938Y0116930D03*
X0138938Y0116930D03*
X0128938Y0116930D03*
X0118938Y0116930D03*
X0108938Y0116930D03*
X0098938Y0116930D03*
X0088938Y0116930D03*
X0078938Y0116930D03*
X0078938Y0106930D03*
X0078938Y0096930D03*
X0078938Y0086930D03*
X0078938Y0076930D03*
X0078938Y0066930D03*
X0078938Y0056930D03*
X0088938Y0056930D03*
X0098938Y0056930D03*
X0108938Y0056930D03*
X0118938Y0056930D03*
X0128938Y0056930D03*
X0138938Y0056930D03*
X0148938Y0056930D03*
X0158938Y0056930D03*
X0168938Y0056930D03*
X0178938Y0056930D03*
X0188938Y0056930D03*
X0198938Y0056930D03*
X0208938Y0056930D03*
X0218938Y0056930D03*
X0228938Y0056930D03*
X0238938Y0056930D03*
X0248938Y0056930D03*
X0258938Y0056930D03*
X0248938Y0066930D03*
X0228938Y0066930D03*
X0218938Y0066930D03*
X0208938Y0066930D03*
X0213938Y0104430D03*
X0223938Y0104430D03*
X0233938Y0104430D03*
X0203938Y0104430D03*
X0193938Y0104430D03*
X0068938Y0116930D03*
X0058938Y0116930D03*
X0048938Y0116930D03*
X0038938Y0116930D03*
X0028938Y0116930D03*
X0028938Y0056930D03*
X0038938Y0056930D03*
X0048938Y0056930D03*
X0058938Y0056930D03*
X0068938Y0056930D03*
D12*
X0048859Y0264765D03*
X0048859Y0282481D03*
X0023269Y0282481D03*
X0023269Y0264765D03*
D13*
X0060985Y0355591D03*
X0049568Y0374095D03*
X0072796Y0374095D03*
X0060985Y0407481D03*
X0049568Y0425985D03*
X0072796Y0425985D03*
D14*
X0075906Y0305591D03*
X0065906Y0305591D03*
X0055906Y0305591D03*
D15*
X0056244Y0245552D02*
X0050844Y0245552D01*
X0050844Y0235552D02*
X0056244Y0235552D01*
X0056244Y0225552D02*
X0050844Y0225552D01*
D16*
X0072166Y0203072D03*
X0073150Y0168623D03*
X0015080Y0203072D03*
X0100709Y0298544D03*
X0132206Y0261143D03*
X0122363Y0243426D03*
X0130237Y0227678D03*
X0151891Y0261143D03*
X0171576Y0261143D03*
X0191261Y0261143D03*
X0210946Y0261143D03*
X0230631Y0261143D03*
X0186339Y0203072D03*
X0270985Y0115473D03*
X0274922Y0110552D03*
X0270985Y0105631D03*
X0274922Y0100709D03*
X0270985Y0095788D03*
X0274922Y0090867D03*
X0270985Y0085946D03*
X0274922Y0081024D03*
X0270985Y0076103D03*
X0251300Y0036733D03*
X0277875Y0028859D03*
X0274922Y0120394D03*
D17*
X0043623Y0015080D02*
X0013111Y0045591D01*
X0013111Y0124331D01*
X0020001Y0131221D01*
X0074646Y0131221D01*
X0088938Y0116930D01*
X0078938Y0116930D02*
X0069568Y0126300D01*
X0026891Y0126300D01*
X0020985Y0120394D01*
X0020985Y0048544D01*
X0047068Y0022461D01*
X0284272Y0022461D01*
X0342835Y0081024D01*
X0342835Y0119174D01*
X0342835Y0129174D02*
X0343898Y0129174D01*
X0353662Y0119410D01*
X0353662Y0082009D01*
X0286733Y0015080D01*
X0043623Y0015080D01*
X0128938Y0056930D02*
X0140276Y0045591D01*
X0242442Y0045591D01*
X0251300Y0036733D01*
X0258938Y0056930D02*
X0258938Y0073387D01*
X0254253Y0078072D01*
X0254253Y0146969D01*
X0238505Y0162717D01*
X0119410Y0162717D01*
X0070198Y0162717D01*
X0064292Y0168623D01*
X0064292Y0224804D01*
X0053544Y0235552D01*
X0053544Y0225552D02*
X0053544Y0169528D01*
X0070198Y0152875D01*
X0234568Y0152875D01*
X0244410Y0143032D01*
X0244410Y0071457D01*
X0248938Y0066930D01*
X0270985Y0076103D02*
X0276891Y0076103D01*
X0316261Y0115473D01*
X0316261Y0147717D01*
X0342835Y0174292D01*
X0342835Y0184292D02*
X0312816Y0154272D01*
X0312816Y0118918D01*
X0274922Y0081024D01*
X0275906Y0085946D02*
X0270985Y0085946D01*
X0275906Y0085946D02*
X0309371Y0119410D01*
X0309371Y0195946D01*
X0342835Y0229410D01*
X0342835Y0239410D02*
X0305434Y0202009D01*
X0305434Y0120394D01*
X0278859Y0093820D01*
X0277875Y0093820D01*
X0274922Y0090867D01*
X0276891Y0095788D02*
X0270985Y0095788D01*
X0274922Y0100709D02*
X0297560Y0123347D01*
X0297560Y0249253D01*
X0342835Y0294528D01*
X0342835Y0284528D02*
X0301497Y0243190D01*
X0301497Y0120394D01*
X0276891Y0095788D01*
X0275906Y0105631D02*
X0270985Y0105631D01*
X0274922Y0110552D02*
X0289194Y0124824D01*
X0289194Y0296005D01*
X0342835Y0349646D01*
X0342835Y0339646D02*
X0293623Y0290434D01*
X0293623Y0123347D01*
X0275906Y0105631D01*
X0275906Y0115473D02*
X0270985Y0115473D01*
X0274922Y0120394D02*
X0281812Y0127284D01*
X0281812Y0343741D01*
X0342835Y0404765D01*
X0342835Y0394765D02*
X0285749Y0337678D01*
X0285749Y0125316D01*
X0275906Y0115473D01*
X0228938Y0116930D02*
X0209725Y0136143D01*
X0035749Y0136143D01*
X0022954Y0148938D01*
X0022954Y0251300D01*
X0018032Y0256221D01*
X0018032Y0319489D01*
X0026379Y0327835D01*
X0065906Y0305591D02*
X0076576Y0316261D01*
X0174528Y0316261D01*
X0186339Y0304450D01*
X0186339Y0203072D01*
X0130237Y0227678D02*
X0106615Y0251300D01*
X0052481Y0251300D01*
X0039017Y0264765D01*
X0023269Y0264765D01*
X0065906Y0305591D02*
X0066261Y0305946D01*
M02*
