G75*
%MOIN*%
%OFA0B0*%
%FSLAX25Y25*%
%IPPOS*%
%LPD*%
%AMOC8*
5,1,8,0,0,1.08239X$1,22.5*
%
%ADD10R,0.05118X0.05906*%
%ADD11C,0.06000*%
%ADD12R,0.04724X0.04724*%
%ADD13R,0.05512X0.04331*%
%ADD14R,0.04331X0.05512*%
%ADD15C,0.10000*%
%ADD16C,0.05700*%
%ADD17C,0.04000*%
%ADD18C,0.18898*%
%ADD19C,0.06600*%
%ADD20R,0.04800X0.08800*%
%ADD21R,0.14173X0.08661*%
%ADD22C,0.05400*%
%ADD23C,0.00600*%
%ADD24C,0.02978*%
D10*
X0085552Y0203072D03*
X0092245Y0203072D03*
X0105237Y0203072D03*
X0111930Y0203072D03*
X0124922Y0203072D03*
X0131615Y0203072D03*
X0144607Y0203072D03*
X0151300Y0203072D03*
X0164292Y0203072D03*
X0170985Y0203072D03*
D11*
X0170158Y0147017D02*
X0170158Y0141017D01*
X0180158Y0141017D02*
X0180158Y0147017D01*
X0190158Y0147017D02*
X0190158Y0141017D01*
X0200158Y0141017D02*
X0200158Y0147017D01*
X0210158Y0147017D02*
X0210158Y0141017D01*
X0220158Y0141017D02*
X0220158Y0147017D01*
X0230158Y0147017D02*
X0230158Y0141017D01*
X0160158Y0141017D02*
X0160158Y0147017D01*
X0150158Y0147017D02*
X0150158Y0141017D01*
X0140158Y0141017D02*
X0140158Y0147017D01*
X0130158Y0147017D02*
X0130158Y0141017D01*
X0120158Y0141017D02*
X0120158Y0147017D01*
X0110158Y0147017D02*
X0110158Y0141017D01*
X0100158Y0141017D02*
X0100158Y0147017D01*
X0090158Y0147017D02*
X0090158Y0141017D01*
X0080158Y0141017D02*
X0080158Y0147017D01*
X0070158Y0147017D02*
X0070158Y0141017D01*
X0060158Y0141017D02*
X0060158Y0147017D01*
X0050158Y0147017D02*
X0050158Y0141017D01*
X0040158Y0141017D02*
X0040158Y0147017D01*
X0046064Y0038749D02*
X0046064Y0032749D01*
X0056064Y0032749D02*
X0056064Y0038749D01*
X0066064Y0038749D02*
X0066064Y0032749D01*
X0076064Y0032749D02*
X0076064Y0038749D01*
X0086064Y0038749D02*
X0086064Y0032749D01*
X0096064Y0032749D02*
X0096064Y0038749D01*
X0106064Y0038749D02*
X0106064Y0032749D01*
X0116064Y0032749D02*
X0116064Y0038749D01*
X0126064Y0038749D02*
X0126064Y0032749D01*
X0136064Y0032749D02*
X0136064Y0038749D01*
X0146064Y0038749D02*
X0146064Y0032749D01*
X0156064Y0032749D02*
X0156064Y0038749D01*
X0166064Y0038749D02*
X0166064Y0032749D01*
X0176064Y0032749D02*
X0176064Y0038749D01*
X0186064Y0038749D02*
X0186064Y0032749D01*
X0196064Y0032749D02*
X0196064Y0038749D01*
X0206064Y0038749D02*
X0206064Y0032749D01*
X0216064Y0032749D02*
X0216064Y0038749D01*
X0226064Y0038749D02*
X0226064Y0032749D01*
X0236064Y0032749D02*
X0236064Y0038749D01*
X0339835Y0119174D02*
X0345835Y0119174D01*
X0345835Y0129174D02*
X0339835Y0129174D01*
X0339835Y0139174D02*
X0345835Y0139174D01*
X0345835Y0149174D02*
X0339835Y0149174D01*
X0339835Y0174292D02*
X0345835Y0174292D01*
X0345835Y0184292D02*
X0339835Y0184292D01*
X0339835Y0194292D02*
X0345835Y0194292D01*
X0345835Y0204292D02*
X0339835Y0204292D01*
X0339835Y0229410D02*
X0345835Y0229410D01*
X0345835Y0239410D02*
X0339835Y0239410D01*
X0339835Y0249410D02*
X0345835Y0249410D01*
X0345835Y0259410D02*
X0339835Y0259410D01*
X0339835Y0284528D02*
X0345835Y0284528D01*
X0345835Y0294528D02*
X0339835Y0294528D01*
X0339835Y0304528D02*
X0345835Y0304528D01*
X0345835Y0314528D02*
X0339835Y0314528D01*
X0339835Y0339646D02*
X0345835Y0339646D01*
X0345835Y0349646D02*
X0339835Y0349646D01*
X0339835Y0359646D02*
X0345835Y0359646D01*
X0345835Y0369646D02*
X0339835Y0369646D01*
X0339835Y0394765D02*
X0345835Y0394765D01*
X0345835Y0404765D02*
X0339835Y0404765D01*
X0339835Y0414765D02*
X0345835Y0414765D01*
X0345835Y0424765D02*
X0339835Y0424765D01*
X0270237Y0403906D02*
X0270237Y0397906D01*
X0260237Y0397906D02*
X0260237Y0403906D01*
X0250237Y0403906D02*
X0250237Y0397906D01*
X0240237Y0397906D02*
X0240237Y0403906D01*
X0207245Y0403906D02*
X0207245Y0397906D01*
X0197245Y0397906D02*
X0197245Y0403906D01*
X0187245Y0403906D02*
X0187245Y0397906D01*
X0177245Y0397906D02*
X0177245Y0403906D01*
X0142284Y0403906D02*
X0142284Y0397906D01*
X0132284Y0397906D02*
X0132284Y0403906D01*
X0122284Y0403906D02*
X0122284Y0397906D01*
X0112284Y0397906D02*
X0112284Y0403906D01*
X0112284Y0335009D02*
X0112284Y0329009D01*
X0122284Y0329009D02*
X0122284Y0335009D01*
X0132284Y0335009D02*
X0132284Y0329009D01*
X0142284Y0329009D02*
X0142284Y0335009D01*
X0177245Y0335009D02*
X0177245Y0329009D01*
X0187245Y0329009D02*
X0187245Y0335009D01*
X0197245Y0335009D02*
X0197245Y0329009D01*
X0207245Y0329009D02*
X0207245Y0335009D01*
X0240237Y0335009D02*
X0240237Y0329009D01*
X0250237Y0329009D02*
X0250237Y0335009D01*
X0260237Y0335009D02*
X0260237Y0329009D01*
X0270237Y0329009D02*
X0270237Y0335009D01*
X0029379Y0327835D02*
X0023379Y0327835D01*
X0023379Y0317835D02*
X0029379Y0317835D01*
X0029379Y0307835D02*
X0023379Y0307835D01*
D12*
X0277875Y0044804D03*
X0277875Y0036536D03*
D13*
X0262127Y0036733D03*
X0262127Y0044607D03*
D14*
X0238505Y0247363D03*
X0230631Y0247363D03*
X0218820Y0247363D03*
X0210946Y0247363D03*
X0199135Y0247363D03*
X0191261Y0247363D03*
X0179450Y0247363D03*
X0171576Y0247363D03*
X0159765Y0247363D03*
X0151891Y0247363D03*
X0140080Y0247363D03*
X0132206Y0247363D03*
X0033780Y0203072D03*
X0025906Y0203072D03*
D15*
X0033780Y0180434D03*
X0053465Y0180434D03*
X0073150Y0180434D03*
X0092835Y0180434D03*
X0113505Y0180434D03*
X0151891Y0180434D03*
X0171576Y0180434D03*
D16*
X0168938Y0116930D03*
X0158938Y0116930D03*
X0148938Y0116930D03*
X0138938Y0116930D03*
X0128938Y0116930D03*
X0118938Y0116930D03*
X0108938Y0116930D03*
X0098938Y0116930D03*
X0088938Y0116930D03*
X0078938Y0116930D03*
X0078938Y0106930D03*
X0078938Y0096930D03*
X0078938Y0086930D03*
X0078938Y0076930D03*
X0078938Y0066930D03*
X0078938Y0056930D03*
X0088938Y0056930D03*
X0098938Y0056930D03*
X0108938Y0056930D03*
X0118938Y0056930D03*
X0128938Y0056930D03*
X0138938Y0056930D03*
X0148938Y0056930D03*
X0158938Y0056930D03*
X0168938Y0056930D03*
X0178938Y0056930D03*
X0188938Y0056930D03*
X0198938Y0056930D03*
X0208938Y0056930D03*
X0218938Y0056930D03*
X0228938Y0056930D03*
X0238938Y0056930D03*
X0248938Y0056930D03*
X0258938Y0056930D03*
X0248938Y0066930D03*
X0228938Y0066930D03*
X0218938Y0066930D03*
X0208938Y0066930D03*
X0213938Y0104430D03*
X0223938Y0104430D03*
X0233938Y0104430D03*
X0238938Y0116930D03*
X0228938Y0116930D03*
X0218938Y0116930D03*
X0208938Y0116930D03*
X0198938Y0116930D03*
X0188938Y0116930D03*
X0178938Y0116930D03*
X0193938Y0104430D03*
X0203938Y0104430D03*
X0248938Y0116930D03*
X0258938Y0116930D03*
X0068938Y0116930D03*
X0058938Y0116930D03*
X0048938Y0116930D03*
X0038938Y0116930D03*
X0028938Y0116930D03*
X0028938Y0056930D03*
X0038938Y0056930D03*
X0048938Y0056930D03*
X0058938Y0056930D03*
X0068938Y0056930D03*
D17*
X0048859Y0264765D03*
X0048859Y0282481D03*
X0023269Y0282481D03*
X0023269Y0264765D03*
D18*
X0060985Y0355591D03*
X0049568Y0374095D03*
X0072796Y0374095D03*
X0060985Y0407481D03*
X0049568Y0425985D03*
X0072796Y0425985D03*
D19*
X0075906Y0305591D03*
X0065906Y0305591D03*
X0055906Y0305591D03*
D20*
X0092043Y0235478D03*
X0101143Y0235478D03*
X0110243Y0235478D03*
D21*
X0101143Y0259879D03*
D22*
X0056244Y0245552D02*
X0050844Y0245552D01*
X0050844Y0235552D02*
X0056244Y0235552D01*
X0056244Y0225552D02*
X0050844Y0225552D01*
D23*
X0028938Y0041576D02*
X0034765Y0035749D01*
X0046064Y0035749D01*
X0056064Y0035749D02*
X0056064Y0039804D01*
X0038938Y0056930D01*
X0048938Y0056930D02*
X0066064Y0039804D01*
X0066064Y0035749D01*
X0076064Y0035749D02*
X0076064Y0039804D01*
X0058938Y0056930D01*
X0068938Y0056930D02*
X0072639Y0052993D01*
X0086064Y0039568D01*
X0086064Y0035749D01*
X0102796Y0019017D01*
X0295591Y0019017D01*
X0304450Y0028859D01*
X0304450Y0156812D01*
X0238505Y0223741D01*
X0238505Y0247363D01*
X0238505Y0274922D01*
X0250237Y0286654D01*
X0250237Y0332009D01*
X0250237Y0400906D01*
X0240237Y0400906D02*
X0240237Y0332009D01*
X0240237Y0296339D01*
X0218820Y0274922D01*
X0218820Y0247363D01*
X0218820Y0230631D01*
X0225709Y0223741D01*
X0233583Y0223741D01*
X0299528Y0156812D01*
X0299528Y0026891D01*
X0293623Y0020985D01*
X0110828Y0020985D01*
X0096064Y0035749D01*
X0096064Y0039410D01*
X0082481Y0052993D01*
X0078938Y0056930D01*
X0078269Y0066261D02*
X0078938Y0066930D01*
X0078269Y0066261D02*
X0020985Y0066261D01*
X0019017Y0068229D01*
X0019017Y0165670D01*
X0033780Y0180434D01*
X0033780Y0202087D01*
X0033780Y0203072D01*
X0033780Y0271969D01*
X0023269Y0282481D01*
X0040670Y0290355D02*
X0040670Y0192245D01*
X0052481Y0180434D01*
X0053465Y0180434D01*
X0073150Y0180434D02*
X0073150Y0168623D01*
X0085946Y0175513D02*
X0085946Y0202678D01*
X0085552Y0203072D01*
X0072166Y0203072D01*
X0092245Y0203072D02*
X0092245Y0190867D01*
X0092835Y0190276D01*
X0092835Y0181615D01*
X0092245Y0181024D01*
X0092835Y0180434D01*
X0085946Y0175513D02*
X0093820Y0167639D01*
X0105631Y0167639D01*
X0105237Y0168032D01*
X0105237Y0203072D01*
X0111930Y0203072D02*
X0111930Y0180828D01*
X0113505Y0180434D01*
X0105631Y0167639D02*
X0135158Y0167639D01*
X0135158Y0181418D01*
X0144607Y0190867D01*
X0144607Y0203072D01*
X0151300Y0203072D02*
X0151300Y0206615D01*
X0130237Y0227678D01*
X0132206Y0235478D02*
X0122363Y0235478D01*
X0122363Y0243426D01*
X0122363Y0235478D02*
X0110243Y0235478D01*
X0110243Y0227003D01*
X0115473Y0221772D01*
X0121379Y0221772D01*
X0131615Y0211536D01*
X0131615Y0203072D01*
X0124922Y0203072D02*
X0124922Y0191654D01*
X0135158Y0181418D01*
X0135158Y0167639D02*
X0154843Y0167639D01*
X0164292Y0177087D01*
X0164292Y0203072D01*
X0170985Y0203072D02*
X0186339Y0203072D01*
X0192245Y0215867D02*
X0179450Y0228662D01*
X0179450Y0247363D01*
X0179450Y0274922D01*
X0177245Y0277127D01*
X0177245Y0332009D01*
X0177245Y0400906D01*
X0187245Y0400906D02*
X0187245Y0332009D01*
X0187245Y0286812D01*
X0199135Y0274922D01*
X0199135Y0247363D01*
X0199135Y0228662D01*
X0209961Y0218820D01*
X0232599Y0218820D01*
X0294607Y0156812D01*
X0294607Y0026891D01*
X0291654Y0023938D01*
X0197875Y0023938D01*
X0186064Y0035749D01*
X0186064Y0054056D01*
X0188938Y0056930D01*
X0196064Y0054056D02*
X0196064Y0035749D01*
X0206064Y0035749D02*
X0206064Y0054056D01*
X0208938Y0056930D01*
X0216064Y0054056D02*
X0218938Y0056930D01*
X0216064Y0054056D02*
X0216064Y0035749D01*
X0226064Y0035749D02*
X0225709Y0047206D01*
X0225709Y0053702D01*
X0228938Y0056930D01*
X0236064Y0035749D02*
X0243426Y0035749D01*
X0247363Y0039686D01*
X0247363Y0055355D01*
X0248938Y0056930D01*
X0262127Y0044607D02*
X0262324Y0044804D01*
X0277875Y0044804D01*
X0277875Y0036536D02*
X0277875Y0028859D01*
X0262127Y0036733D02*
X0251300Y0036733D01*
X0276891Y0071182D02*
X0289686Y0083977D01*
X0289686Y0156812D01*
X0230631Y0215867D01*
X0192245Y0215867D01*
X0170591Y0212914D02*
X0159765Y0224725D01*
X0159765Y0247363D01*
X0159765Y0274922D01*
X0122284Y0312402D01*
X0122284Y0332009D01*
X0122284Y0400906D01*
X0112284Y0400906D02*
X0112284Y0332009D01*
X0112284Y0302717D01*
X0140080Y0274922D01*
X0140080Y0246725D01*
X0139938Y0246583D01*
X0140080Y0247363D01*
X0139938Y0246583D02*
X0140080Y0223741D01*
X0153859Y0209961D01*
X0226694Y0209961D01*
X0279843Y0156812D01*
X0279843Y0140080D01*
X0272954Y0133190D01*
X0225198Y0133190D01*
X0208938Y0116930D01*
X0198938Y0116930D02*
X0209204Y0106664D01*
X0209204Y0102877D01*
X0212355Y0099725D01*
X0235552Y0099725D01*
X0249116Y0109352D01*
X0273722Y0109352D01*
X0274922Y0110552D01*
X0270985Y0115473D02*
X0267048Y0111536D01*
X0244331Y0111536D01*
X0238938Y0116930D01*
X0228485Y0126477D02*
X0277068Y0126477D01*
X0284765Y0134174D01*
X0284765Y0156812D01*
X0228662Y0212914D01*
X0170591Y0212914D01*
X0170985Y0203072D02*
X0170985Y0181024D01*
X0171576Y0180434D01*
X0151891Y0180434D02*
X0151300Y0181024D01*
X0151300Y0203072D01*
X0132206Y0235478D02*
X0132206Y0247363D01*
X0132206Y0261143D01*
X0118426Y0261054D02*
X0109529Y0261054D01*
X0109529Y0261652D02*
X0118426Y0261652D01*
X0118426Y0262251D02*
X0109529Y0262251D01*
X0109529Y0262849D02*
X0118426Y0262849D01*
X0118426Y0263448D02*
X0109529Y0263448D01*
X0109529Y0264046D02*
X0118426Y0264046D01*
X0118426Y0264645D02*
X0109458Y0264645D01*
X0109441Y0264711D02*
X0109269Y0265008D01*
X0109027Y0265250D01*
X0108731Y0265421D01*
X0108400Y0265509D01*
X0101442Y0265509D01*
X0101442Y0260179D01*
X0100843Y0260179D01*
X0100843Y0265509D01*
X0093885Y0265509D01*
X0093554Y0265421D01*
X0093258Y0265250D01*
X0093016Y0265008D01*
X0092845Y0264711D01*
X0092756Y0264381D01*
X0092756Y0260179D01*
X0100842Y0260179D01*
X0100842Y0259579D01*
X0092756Y0259579D01*
X0092756Y0256221D01*
X0082993Y0256221D01*
X0082993Y0292639D01*
X0118426Y0292639D01*
X0118426Y0256221D01*
X0109529Y0256221D01*
X0109529Y0259579D01*
X0101443Y0259579D01*
X0101443Y0260179D01*
X0109529Y0260179D01*
X0109529Y0264381D01*
X0109441Y0264711D01*
X0109034Y0265243D02*
X0118426Y0265243D01*
X0118426Y0265842D02*
X0082993Y0265842D01*
X0082993Y0266441D02*
X0118426Y0266441D01*
X0118426Y0267039D02*
X0082993Y0267039D01*
X0082993Y0267638D02*
X0118426Y0267638D01*
X0118426Y0268236D02*
X0082993Y0268236D01*
X0082993Y0268835D02*
X0118426Y0268835D01*
X0118426Y0269433D02*
X0082993Y0269433D01*
X0082993Y0270032D02*
X0118426Y0270032D01*
X0118426Y0270630D02*
X0082993Y0270630D01*
X0082993Y0271229D02*
X0118426Y0271229D01*
X0118426Y0271827D02*
X0082993Y0271827D01*
X0082993Y0272426D02*
X0118426Y0272426D01*
X0118426Y0273024D02*
X0082993Y0273024D01*
X0082993Y0273623D02*
X0118426Y0273623D01*
X0118426Y0274221D02*
X0082993Y0274221D01*
X0082993Y0274820D02*
X0118426Y0274820D01*
X0118426Y0275418D02*
X0082993Y0275418D01*
X0082993Y0276017D02*
X0118426Y0276017D01*
X0118426Y0276615D02*
X0082993Y0276615D01*
X0082993Y0277214D02*
X0118426Y0277214D01*
X0118426Y0277812D02*
X0082993Y0277812D01*
X0082993Y0278411D02*
X0118426Y0278411D01*
X0118426Y0279009D02*
X0082993Y0279009D01*
X0082993Y0279608D02*
X0118426Y0279608D01*
X0118426Y0280206D02*
X0082993Y0280206D01*
X0082993Y0280805D02*
X0118426Y0280805D01*
X0118426Y0281403D02*
X0082993Y0281403D01*
X0082993Y0282002D02*
X0118426Y0282002D01*
X0118426Y0282600D02*
X0082993Y0282600D01*
X0082993Y0283199D02*
X0118426Y0283199D01*
X0118426Y0283797D02*
X0082993Y0283797D01*
X0082993Y0284396D02*
X0118426Y0284396D01*
X0118426Y0284994D02*
X0082993Y0284994D01*
X0082993Y0285593D02*
X0118426Y0285593D01*
X0118426Y0286191D02*
X0082993Y0286191D01*
X0082993Y0286790D02*
X0118426Y0286790D01*
X0118426Y0287388D02*
X0082993Y0287388D01*
X0082993Y0287987D02*
X0118426Y0287987D01*
X0118426Y0288585D02*
X0082993Y0288585D01*
X0082993Y0289184D02*
X0118426Y0289184D01*
X0118426Y0289782D02*
X0082993Y0289782D01*
X0082993Y0290381D02*
X0118426Y0290381D01*
X0118426Y0290979D02*
X0082993Y0290979D01*
X0082993Y0291578D02*
X0118426Y0291578D01*
X0118426Y0292177D02*
X0082993Y0292177D01*
X0075906Y0305591D02*
X0075906Y0251418D01*
X0070040Y0245552D01*
X0080114Y0235478D01*
X0091851Y0235478D01*
X0092245Y0235084D01*
X0092245Y0203072D01*
X0101143Y0219371D02*
X0111930Y0208583D01*
X0111930Y0203072D01*
X0101143Y0219371D02*
X0101143Y0235478D01*
X0092043Y0235478D02*
X0091851Y0235478D01*
X0092756Y0256266D02*
X0082993Y0256266D01*
X0082993Y0256864D02*
X0092756Y0256864D01*
X0092756Y0257463D02*
X0082993Y0257463D01*
X0082993Y0258061D02*
X0092756Y0258061D01*
X0092756Y0258660D02*
X0082993Y0258660D01*
X0082993Y0259258D02*
X0092756Y0259258D01*
X0092756Y0260455D02*
X0082993Y0260455D01*
X0082993Y0259857D02*
X0100842Y0259857D01*
X0100709Y0260312D02*
X0100709Y0298544D01*
X0100843Y0265243D02*
X0101442Y0265243D01*
X0101442Y0264645D02*
X0100843Y0264645D01*
X0100843Y0264046D02*
X0101442Y0264046D01*
X0101442Y0263448D02*
X0100843Y0263448D01*
X0100843Y0262849D02*
X0101442Y0262849D01*
X0101442Y0262251D02*
X0100843Y0262251D01*
X0100843Y0261652D02*
X0101442Y0261652D01*
X0101442Y0261054D02*
X0100843Y0261054D01*
X0100843Y0260455D02*
X0101442Y0260455D01*
X0101143Y0259879D02*
X0101103Y0259881D01*
X0101063Y0259886D01*
X0101025Y0259896D01*
X0100987Y0259908D01*
X0100950Y0259924D01*
X0100915Y0259944D01*
X0100882Y0259966D01*
X0100851Y0259992D01*
X0100823Y0260020D01*
X0100797Y0260051D01*
X0100775Y0260084D01*
X0100755Y0260119D01*
X0100739Y0260156D01*
X0100727Y0260194D01*
X0100717Y0260232D01*
X0100712Y0260272D01*
X0100710Y0260312D01*
X0101443Y0259857D02*
X0118426Y0259857D01*
X0118426Y0260455D02*
X0109529Y0260455D01*
X0109529Y0259258D02*
X0118426Y0259258D01*
X0118426Y0258660D02*
X0109529Y0258660D01*
X0109529Y0258061D02*
X0118426Y0258061D01*
X0118426Y0257463D02*
X0109529Y0257463D01*
X0109529Y0256864D02*
X0118426Y0256864D01*
X0118426Y0256266D02*
X0109529Y0256266D01*
X0092756Y0261054D02*
X0082993Y0261054D01*
X0082993Y0261652D02*
X0092756Y0261652D01*
X0092756Y0262251D02*
X0082993Y0262251D01*
X0082993Y0262849D02*
X0092756Y0262849D01*
X0092756Y0263448D02*
X0082993Y0263448D01*
X0082993Y0264046D02*
X0092756Y0264046D01*
X0092827Y0264645D02*
X0082993Y0264645D01*
X0082993Y0265243D02*
X0093251Y0265243D01*
X0070040Y0245552D02*
X0053544Y0245552D01*
X0040670Y0290355D02*
X0055906Y0305591D01*
X0049568Y0311930D01*
X0049568Y0374095D01*
X0049568Y0425985D01*
X0151891Y0261143D02*
X0151891Y0247363D01*
X0171576Y0247363D02*
X0171576Y0261143D01*
X0191261Y0261143D02*
X0191261Y0247363D01*
X0208977Y0249331D02*
X0210946Y0247363D01*
X0210946Y0261143D01*
X0230631Y0261143D02*
X0230631Y0247363D01*
X0149922Y0131221D02*
X0158938Y0122206D01*
X0158938Y0116930D01*
X0168938Y0116930D02*
X0190727Y0093172D01*
X0268369Y0093172D01*
X0270985Y0095788D01*
X0274701Y0100489D02*
X0274922Y0100709D01*
X0274701Y0100489D02*
X0244631Y0100489D01*
X0236546Y0095357D01*
X0193661Y0095357D01*
X0188308Y0101694D01*
X0188308Y0107560D01*
X0178938Y0116930D01*
X0188938Y0116930D02*
X0199135Y0106733D01*
X0199135Y0102678D01*
X0204272Y0097541D01*
X0236049Y0097541D01*
X0248076Y0105631D01*
X0270985Y0105631D01*
X0274922Y0120394D02*
X0271969Y0123347D01*
X0255355Y0123347D01*
X0248938Y0116930D01*
X0228485Y0126477D02*
X0218938Y0116930D01*
X0193190Y0071182D02*
X0276891Y0071182D01*
X0270985Y0076103D02*
X0139765Y0076103D01*
X0098938Y0116930D01*
X0097757Y0127284D02*
X0143032Y0127284D01*
X0148938Y0121379D01*
X0148938Y0116930D01*
X0138938Y0116930D02*
X0165001Y0090867D01*
X0274922Y0090867D01*
X0270985Y0085946D02*
X0159922Y0085946D01*
X0128938Y0116930D01*
X0149922Y0131221D02*
X0103662Y0131221D01*
X0100158Y0134725D01*
X0100158Y0144017D01*
X0090158Y0144017D02*
X0090158Y0134883D01*
X0097757Y0127284D01*
X0108938Y0116930D02*
X0144843Y0081024D01*
X0274922Y0081024D01*
X0198938Y0056930D02*
X0196064Y0054056D01*
X0178938Y0056930D02*
X0193190Y0071182D01*
X0178938Y0056930D02*
X0176064Y0054056D01*
X0176064Y0035749D01*
X0166064Y0035749D02*
X0166064Y0054056D01*
X0168938Y0056930D01*
X0158938Y0056930D02*
X0156064Y0054056D01*
X0156064Y0035749D01*
X0146064Y0035749D02*
X0146064Y0054056D01*
X0148938Y0056930D01*
X0138938Y0056930D02*
X0136064Y0054056D01*
X0136064Y0035749D01*
X0126064Y0035749D02*
X0126064Y0039804D01*
X0108938Y0056930D01*
X0098938Y0056930D02*
X0116064Y0039804D01*
X0116064Y0035749D01*
X0106064Y0035749D02*
X0106064Y0039253D01*
X0092324Y0052993D01*
X0088938Y0056930D01*
X0068938Y0116930D02*
X0068938Y0133780D01*
X0080158Y0144017D01*
X0070158Y0144017D02*
X0058938Y0133780D01*
X0058938Y0116930D01*
X0048938Y0116930D02*
X0048938Y0133780D01*
X0060158Y0144017D01*
X0050158Y0144017D02*
X0038938Y0133780D01*
X0038938Y0116930D01*
X0028938Y0116930D02*
X0028938Y0133780D01*
X0040158Y0144017D01*
X0025906Y0203072D02*
X0015080Y0203072D01*
X0028938Y0056930D02*
X0028938Y0041576D01*
D24*
X0073150Y0168623D03*
X0072166Y0203072D03*
X0122363Y0243426D03*
X0130237Y0227678D03*
X0132206Y0261143D03*
X0151891Y0261143D03*
X0171576Y0261143D03*
X0191261Y0261143D03*
X0210946Y0261143D03*
X0230631Y0261143D03*
X0186339Y0203072D03*
X0270985Y0115473D03*
X0274922Y0110552D03*
X0270985Y0105631D03*
X0274922Y0100709D03*
X0270985Y0095788D03*
X0274922Y0090867D03*
X0270985Y0085946D03*
X0274922Y0081024D03*
X0270985Y0076103D03*
X0251300Y0036733D03*
X0277875Y0028859D03*
X0274922Y0120394D03*
X0100709Y0298544D03*
X0015080Y0203072D03*
M02*
