%
M48
M72
T01C0.01378
T02C0.02362
T03C0.03600
T04C0.03800
T05C0.03937
T06C0.04000
T07C0.11811
T08C0.13583
%
T01
X73150Y168623
X109568Y188308
X101694Y219804
X122363Y243426
X132206Y261143
X151891Y261143
X171576Y261143
X191261Y261143
X210946Y261143
X230631Y261143
X274922Y120394
X270985Y115473
X274922Y110552
X270985Y105631
X274922Y100709
X270985Y95788
X274922Y90867
X270985Y85946
X274922Y81024
X270985Y76103
X251300Y36733
X277875Y28859
X100709Y298544
X62324Y255237
X15080Y203072
T02
X23269Y264765
X23269Y282481
X48859Y282481
X48859Y264765
T03
X53544Y245552
X53544Y235552
X53544Y225552
T04
X48938Y116930
X58938Y116930
X68938Y116930
X78938Y116930
X78938Y106930
X78938Y96930
X78938Y86930
X78938Y76930
X78938Y66930
X78938Y56930
X88938Y56930
X98938Y56930
X108938Y56930
X118938Y56930
X128938Y56930
X138938Y56930
X148938Y56930
X158938Y56930
X168938Y56930
X178938Y56930
X188938Y56930
X198938Y56930
X208938Y56930
X218938Y56930
X228938Y56930
X238938Y56930
X248938Y56930
X258938Y56930
X248938Y66930
X228938Y66930
X218938Y66930
X208938Y66930
X213938Y104430
X223938Y104430
X233938Y104430
X238938Y116930
X228938Y116930
X218938Y116930
X208938Y116930
X198938Y116930
X188938Y116930
X178938Y116930
X168938Y116930
X158938Y116930
X148938Y116930
X138938Y116930
X128938Y116930
X118938Y116930
X108938Y116930
X98938Y116930
X88938Y116930
X68938Y56930
X58938Y56930
X48938Y56930
X38938Y56930
X28938Y56930
X28938Y116930
X38938Y116930
X193938Y104430
X203938Y104430
X248938Y116930
X258938Y116930
T05
X75906Y305591
X65906Y305591
X55906Y305591
T06
X26379Y307835
X26379Y317835
X26379Y327835
X112284Y332009
X122284Y332009
X132284Y332009
X142284Y332009
X177245Y332009
X187245Y332009
X197245Y332009
X207245Y332009
X240237Y332009
X250237Y332009
X260237Y332009
X270237Y332009
X270237Y400906
X260237Y400906
X250237Y400906
X240237Y400906
X207245Y400906
X197245Y400906
X187245Y400906
X177245Y400906
X142284Y400906
X132284Y400906
X122284Y400906
X112284Y400906
X110158Y144017
X100158Y144017
X90158Y144017
X80158Y144017
X70158Y144017
X60158Y144017
X50158Y144017
X40158Y144017
X120158Y144017
X130158Y144017
X140158Y144017
X150158Y144017
X160158Y144017
X170158Y144017
X180158Y144017
X190158Y144017
X200158Y144017
X210158Y144017
X220158Y144017
X230158Y144017
X226064Y35749
X236064Y35749
X216064Y35749
X206064Y35749
X196064Y35749
X186064Y35749
X176064Y35749
X166064Y35749
X156064Y35749
X146064Y35749
X136064Y35749
X126064Y35749
X116064Y35749
X106064Y35749
X96064Y35749
X86064Y35749
X76064Y35749
X66064Y35749
X56064Y35749
X46064Y35749
X342835Y119174
X342835Y129174
X342835Y139174
X342835Y149174
X342835Y174292
X342835Y184292
X342835Y194292
X342835Y204292
X342835Y229410
X342835Y239410
X342835Y249410
X342835Y259410
X342835Y284528
X342835Y294528
X342835Y304528
X342835Y314528
X342835Y339646
X342835Y349646
X342835Y359646
X342835Y369646
X342835Y394765
X342835Y404765
X342835Y414765
X342835Y424765
T07
X72796Y425985
X60985Y407481
X49568Y425985
X49568Y374095
X60985Y355591
X72796Y374095
T08
X20985Y20985
X343820Y20985
X343820Y457993
X20985Y457993
M30
